<svg width="24" height="24" viewBox="0 0 24 24" fill="none" xmlns="http://www.w3.org/2000/svg">
<g clip-path="url(#clip0_15_11)">
<path d="M12 0.751968C5.78681 0.751968 0.75 5.78873 0.75 12.002C0.75 18.2152 5.78681 23.252 12 23.252C18.2132 23.252 23.25 18.2152 23.25 12.002C23.25 5.78878 18.2132 0.751968 12 0.751968V0.751968ZM18.8943 18.8962C17.1847 20.6006 14.9018 21.6075 12.4905 21.7206C10.0791 21.8337 7.71201 21.045 5.85038 19.5082C3.98876 17.9714 2.76599 15.7965 2.42032 13.4074C2.07466 11.0182 2.63087 8.58598 3.98057 6.58453C5.33028 4.58309 7.37678 3.15584 9.72133 2.58088C12.0659 2.00592 14.5405 2.32445 16.663 3.47439C18.7856 4.62433 20.4039 6.52331 21.2028 8.80131C22.0017 11.0793 21.9238 13.5731 20.9844 15.7969C20.4948 16.9555 19.785 18.0081 18.8943 18.8962V18.8962Z" fill="#F8F8F8"/>
<path d="M12.7789 7.73377L11.7182 6.67313L6.3894 12.0019L11.7182 17.3307L12.7789 16.2701L9.26073 12.7519H18.047V11.2519H9.26073L12.7789 7.73377Z" fill="#F8F8F8"/>
</g>
<defs>
<clipPath id="clip0_15_11">
<rect width="24" height="24" fill="white"/>
</clipPath>
</defs>
</svg>
