<svg width="16" height="16" viewBox="0 0 16 16" fill="none" xmlns="http://www.w3.org/2000/svg">
<path d="M15.3137 2.94924L10.263 8L15.3137 13.0508C15.8693 13.6063 15.8693 14.5155 15.3137 15.0711C14.7581 15.6267 13.849 15.6267 13.2934 15.0711L8.24265 10.0203L3.19188 15.0711C2.6363 15.6267 1.72716 15.6267 1.17158 15.0711C0.615993 14.5155 0.615994 13.6063 1.17158 13.0508L6.22234 8L1.17158 2.94924C0.615994 2.39365 0.615993 1.48452 1.17158 0.928932C1.72716 0.373348 2.6363 0.373348 3.19188 0.928932L8.24265 5.9797L13.2934 0.928932C13.849 0.373348 14.7581 0.373348 15.3137 0.928932C15.8693 1.48452 15.8693 2.39365 15.3137 2.94924Z" fill="#1F2937"/>
</svg>
