<svg width="14" height="14" viewBox="0 0 14 14" fill="none" xmlns="http://www.w3.org/2000/svg">
<path d="M13.1924 2.45431L8.64671 7L13.1924 11.5457C13.6924 12.0457 13.6924 12.8639 13.1924 13.364C12.6924 13.864 11.8741 13.864 11.3741 13.364L6.82843 8.81827L2.28275 13.364C1.78272 13.864 0.964496 13.864 0.464471 13.364C-0.035555 12.8639 -0.0355545 12.0457 0.464471 11.5457L5.01016 7L0.464471 2.45431C-0.0355545 1.95429 -0.035555 1.13606 0.464471 0.636039C0.964496 0.136014 1.78272 0.136013 2.28275 0.636039L6.82843 5.18173L11.3741 0.636039C11.8741 0.136014 12.6924 0.136014 13.1924 0.636039C13.6924 1.13606 13.6924 1.95429 13.1924 2.45431Z" fill="#1F2937"/>
</svg>
