<svg width="32" height="32" viewBox="0 0 32 32" fill="none" xmlns="http://www.w3.org/2000/svg">
<path fill-rule="evenodd" clip-rule="evenodd" d="M13.707 20.707C13.5195 20.8945 13.2652 20.9998 13 20.9998C12.7348 20.9998 12.4805 20.8945 12.293 20.707L8.293 16.707C8.10553 16.5195 8.00021 16.2652 8.00021 16C8.00021 15.7348 8.10553 15.4805 8.293 15.293L12.293 11.293C12.4816 11.1108 12.7342 11.01 12.9964 11.0123C13.2586 11.0146 13.5094 11.1198 13.6948 11.3052C13.8802 11.4906 13.9854 11.7414 13.9877 12.0036C13.99 12.2658 13.8892 12.5184 13.707 12.707L11.414 15L23 15C23.2652 15 23.5196 15.1054 23.7071 15.2929C23.8946 15.4804 24 15.7348 24 16C24 16.2652 23.8946 16.5196 23.7071 16.7071C23.5196 16.8946 23.2652 17 23 17L11.414 17L13.707 19.293C13.8945 19.4805 13.9998 19.7348 13.9998 20C13.9998 20.2652 13.8945 20.5195 13.707 20.707Z" fill="#00477F"/>
<rect x="31.5" y="31.5" width="31" height="31" rx="15.5" transform="rotate(-180 31.5 31.5)" stroke="#00477F"/>
</svg>
