<svg width="33" height="33" viewBox="0 0 33 33" fill="none" xmlns="http://www.w3.org/2000/svg">
<path fill-rule="evenodd" clip-rule="evenodd" d="M13.7373 21.207C13.5497 21.3945 13.2954 21.4998 13.0303 21.4998C12.7651 21.4998 12.5108 21.3945 12.3233 21.207L8.32327 17.207C8.1358 17.0195 8.03049 16.7652 8.03049 16.5C8.03049 16.2348 8.1358 15.9805 8.32327 15.793L12.3233 11.793C12.5119 11.6108 12.7645 11.51 13.0267 11.5123C13.2889 11.5146 13.5397 11.6198 13.7251 11.8052C13.9105 11.9906 14.0157 12.2414 14.0179 12.5036C14.0202 12.7658 13.9194 13.0184 13.7373 13.207L11.4443 15.5L23.0303 15.5C23.2955 15.5 23.5498 15.6054 23.7374 15.7929C23.9249 15.9804 24.0303 16.2348 24.0303 16.5C24.0303 16.7652 23.9249 17.0196 23.7374 17.2071C23.5498 17.3946 23.2955 17.5 23.0303 17.5L11.4443 17.5L13.7373 19.793C13.9247 19.9805 14.0301 20.2348 14.0301 20.5C14.0301 20.7652 13.9247 21.0195 13.7373 21.207Z" fill="#6B7280"/>
<rect x="31.5303" y="32" width="31" height="31" rx="15.5" transform="rotate(-180 31.5303 32)" stroke="#6B7280"/>
</svg>
