<svg width="50" height="38" viewBox="0 0 50 38" fill="none" xmlns="http://www.w3.org/2000/svg">
<path d="M3 16.5C1.61929 16.5 0.5 17.6193 0.5 19C0.5 20.3807 1.61929 21.5 3 21.5V16.5ZM48.7678 20.7678C49.7441 19.7915 49.7441 18.2085 48.7678 17.2322L32.8579 1.32233C31.8816 0.34602 30.2986 0.34602 29.3223 1.32233C28.346 2.29864 28.346 3.88155 29.3223 4.85786L43.4645 19L29.3223 33.1421C28.346 34.1184 28.346 35.7014 29.3223 36.6777C30.2986 37.654 31.8816 37.654 32.8579 36.6777L48.7678 20.7678ZM3 21.5H47V16.5H3V21.5Z" fill="#00477F"/>
</svg>
