<svg width="32" height="32" viewBox="0 0 32 32" fill="none" xmlns="http://www.w3.org/2000/svg">
<path fill-rule="evenodd" clip-rule="evenodd" d="M18.293 11.293C18.4805 11.1055 18.7348 11.0002 19 11.0002C19.2652 11.0002 19.5195 11.1055 19.707 11.293L23.707 15.293C23.8945 15.4805 23.9998 15.7348 23.9998 16C23.9998 16.2652 23.8945 16.5195 23.707 16.707L19.707 20.707C19.5184 20.8892 19.2658 20.99 19.0036 20.9877C18.7414 20.9854 18.4906 20.8802 18.3052 20.6948C18.1198 20.5094 18.0146 20.2586 18.0123 19.9964C18.01 19.7342 18.1108 19.4816 18.293 19.293L20.586 17H9C8.73478 17 8.48043 16.8946 8.29289 16.7071C8.10536 16.5196 8 16.2652 8 16C8 15.7348 8.10536 15.4804 8.29289 15.2929C8.48043 15.1054 8.73478 15 9 15H20.586L18.293 12.707C18.1055 12.5195 18.0002 12.2652 18.0002 12C18.0002 11.7348 18.1055 11.4805 18.293 11.293Z" fill="#00477F"/>
<rect x="0.5" y="0.5" width="31" height="31" rx="15.5" stroke="#00477F"/>
</svg>
