<svg width="33" height="33" viewBox="0 0 33 33" fill="none" xmlns="http://www.w3.org/2000/svg">
<path fill-rule="evenodd" clip-rule="evenodd" d="M18.3233 12.043C18.5108 11.8555 18.7651 11.7502 19.0303 11.7502C19.2954 11.7502 19.5497 11.8555 19.7373 12.043L23.7373 16.043C23.9247 16.2305 24.0301 16.4848 24.0301 16.75C24.0301 17.0152 23.9247 17.2695 23.7373 17.457L19.7373 21.457C19.5487 21.6392 19.2961 21.74 19.0339 21.7377C18.7717 21.7354 18.5209 21.6302 18.3355 21.4448C18.15 21.2594 18.0449 21.0086 18.0426 20.7464C18.0403 20.4842 18.1411 20.2316 18.3233 20.043L20.6163 17.75H9.03027C8.76506 17.75 8.5107 17.6446 8.32317 17.4571C8.13563 17.2696 8.03027 17.0152 8.03027 16.75C8.03027 16.4848 8.13563 16.2304 8.32317 16.0429C8.5107 15.8554 8.76506 15.75 9.03027 15.75H20.6163L18.3233 13.457C18.1358 13.2695 18.0305 13.0152 18.0305 12.75C18.0305 12.4848 18.1358 12.2305 18.3233 12.043Z" fill="#D1D5DB"/>
<rect x="0.530273" y="1.25" width="31" height="31" rx="15.5" stroke="#D1D5DB"/>
</svg>
