<svg width="33" height="33" viewBox="0 0 33 33" fill="none" xmlns="http://www.w3.org/2000/svg">
<path fill-rule="evenodd" clip-rule="evenodd" d="M18.3233 11.793C18.5108 11.6055 18.7651 11.5002 19.0303 11.5002C19.2954 11.5002 19.5497 11.6055 19.7373 11.793L23.7373 15.793C23.9247 15.9805 24.0301 16.2348 24.0301 16.5C24.0301 16.7652 23.9247 17.0195 23.7373 17.207L19.7373 21.207C19.5487 21.3892 19.2961 21.49 19.0339 21.4877C18.7717 21.4854 18.5209 21.3802 18.3355 21.1948C18.15 21.0094 18.0449 20.7586 18.0426 20.4964C18.0403 20.2342 18.1411 19.9816 18.3233 19.793L20.6163 17.5H9.03027C8.76506 17.5 8.5107 17.3946 8.32317 17.2071C8.13563 17.0196 8.03027 16.7652 8.03027 16.5C8.03027 16.2348 8.13563 15.9804 8.32317 15.7929C8.5107 15.6054 8.76506 15.5 9.03027 15.5H20.6163L18.3233 13.207C18.1358 13.0195 18.0305 12.7652 18.0305 12.5C18.0305 12.2348 18.1358 11.9805 18.3233 11.793Z" fill="#D1D5DB"/>
<rect x="0.530273" y="1" width="31" height="31" rx="15.5" stroke="#D1D5DB"/>
</svg>
